{"title":"Diary of a Wimpy Kid, Dog Days 2012 DVDrip English Klam","uid":7854246,"size":1890489223,"categoryP":"video","categoryS":"movies","magnet":"?xt=urn:btih:784a1dd42de78bc8b8b1f1144b03d96f3b652cb1&amp;dn=Diary+of+a+Wimpy+Kid%2C+Dog+Days+2012+DVDrip+English+Klam&amp;tr=udp%3A%2F%2Ftracker.openbittorrent.com%3A80&amp;tr=udp%3A%2F%2Fopen.demonii.com%3A1337&amp;tr=udp%3A%2F%2Ftracker.coppersurfer.tk%3A6969&amp;tr=udp%3A%2F%2Fexodus.desync.com%3A6969","seeders":1,"leechers":0,"uploader":"Klambake","files":-1,"time":1353697811,"description":"With: Zachary Gordon, Robert Capron and Devon Bostick\n\nSchool is afgelopen en Greg maakt zich klaar voor de zomer. Samen met Rowley Jefferson bezoekt hij Rowley's country club. Greg wordt eruit geschopt als hij blijkt te klagen over de kleinste onzinnige dingen. Alles lijkt vervolgens verkeerd te gaan. Wat moet hij in vredesnaam doen gedurende de zomervakantie?\n &lt;a href=&quot;\nhttp://www.imdb.com/title/tt2023453&quot; rel=&quot;nofollow&quot; target=&quot;_NEW&quot;&gt;\nhttp://www.imdb.com/title/tt2023453&lt;/a&gt;\t\n\n------------------------ Dutch Friends ------------------------\n---------------------------------------------------------------\n- Bezoek ook eens mijn vrienden op: &lt;a href=&quot; http://www.Film-Test.nl&quot; rel=&quot;nofollow&quot; target=&quot;_NEW&quot;&gt; http://www.Film-Test.nl&lt;/a&gt; --\n----- voor mijn Nederlandse Sync. ondertitels ---- en meer ----\n------- http://www.Film-Test.nl ---- Over Films en meer -------\n---------------------------------------------------------------\n\nGeneral:\n\nComplete name                    : Diary of a Wimpy KidDog Days 2012.avi\nFormat                           : AVI\nFormat/Info                      : Audio Video Interleave\nFile size                        : 1.76 GiB\nDuration                         : 1h 33mn\nOverall bit rate                 : 2 682 Kbps\n\nVideo:\n\nFormat                           : MPEG-4 Visual\nFormat profile                   : Simple@L3\nFormat settings, BVOP            : No\nFormat settings, QPel            : No\nFormat settings, GMC             : No warppoints\nFormat settings, Matrix          : Default (H.263)\nCodec ID                         : XVID\nCodec ID/Hint                    : XviD\nDuration                         : 1h 33mn\nBit rate                         : 2 223 Kbps\nWidth                            : 720 pixels\nHeight                           : 304 pixels\nDisplay aspect ratio             : 2.35:1\nFrame rate                       : 25.000 fps\nColor space                      : YUV\nChroma subsampling               : 4:2:0\nBit depth                        : 8 bits\nScan type                        : Progressive\nCompression mode                 : Lossy\nBits/(Pixel*Frame)               : 0.406\nStream size                      : 1.46 GiB (83%)\nWriting library                  : XviD 1.1.2 (UTC 2006-11-01)\n\nAudio:\n\nFormat                           : AC-3\nFormat/Info                      : Audio Coding 3\nMode extension                   : CM (complete main)\nCodec ID                         : 2000\nDuration                         : 1h 33mn\nBit rate mode                    : Constant\nBit rate                         : 448 Kbps\nChannel(s)                       : 6 channels\nChannel positions                : Front: L C R, Side: L R, LFE\nSampling rate                    : 48.0 KHz\nBit depth                        : 16 bits\nCompression mode                 : Lossy\nStream size                      : 301 MiB (17%)\nAlignment                        : Aligned on interleaves\nInterleave, duration             : 32 ms (0.80 video frame)\nInterleave, preload duration     : 256 ms","torrent":{"xt":"urn:btih:784a1dd42de78bc8b8b1f1144b03d96f3b652cb1","amp;dn":"Diary+of+a+Wimpy+Kid%2C+Dog+Days+2012+DVDrip+English+Klam","amp;tr":["udp%3A%2F%2Ftracker.openbittorrent.com%3A80","udp%3A%2F%2Fopen.demonii.com%3A1337","udp%3A%2F%2Ftracker.coppersurfer.tk%3A6969","udp%3A%2F%2Fexodus.desync.com%3A6969"],"infoHash":"784a1dd42de78bc8b8b1f1144b03d96f3b652cb1","infoHashBuffer":{"type":"Buffer","data":[120,74,29,212,45,231,139,200,184,177,241,20,75,3,217,111,59,101,44,177]},"announce":[],"urlList":[]}}